<svg width="40" height="48" viewBox="0 0 40 48" fill="none" xmlns="http://www.w3.org/2000/svg">
<path d="M12.5 14.8999H15.5V38.8999H12.5V14.8999Z" fill="#000000"/>
<path d="M18.5 14.8999H21.5V38.8999H18.5V14.8999Z" fill="#000000"/>
<path d="M24.5 14.8999H27.5V38.8999H24.5V14.8999Z" fill="#000000"/>
<path d="M0.5 5.8999H39.5V8.8999H0.5V5.8999Z" fill="#000000"/>
<path d="M27.4 7.39999H24.6V4.39999C24.6 3.49999 23.9 2.8 23 2.8H17C16.1 2.8 15.4 3.49999 15.4 4.39999V7.39999H12.6V4.39999C12.6 1.99999 14.6 0 17 0H23C25.4 0 27.4 1.99999 27.4 4.39999V7.39999Z" fill="#000000"/>
<path d="M29 47.9H11C8.6 47.9 6.5 45.9 6.3 43.5L3.5 7.50005L6.5 7.30005L9.3 43.3C9.4 44.2 10.2 44.9 11 44.9H29C29.9 44.9 30.7 44.1 30.7 43.3L33.5 7.30005L36.5 7.50005L33.7 43.5C33.5 46 31.4 47.9 29 47.9Z" fill="#000000"/>
</svg>
