<svg width="26" height="22" viewBox="0 0 26 22" fill="none" xmlns="http://www.w3.org/2000/svg">
<path d="M7 3.36287V2.52215C7 1.13497 5.65 0 4 0H0V1.68143H4C4.55 1.68143 5 2.05976 5 2.52215V15.1329C5 16.5201 6.35 17.6551 8 17.6551H24V15.9736H8C7.45 15.9736 7 15.5953 7 15.1329V14.1661L23.49 11.9886C24.1915 11.8915 24.829 11.5879 25.2888 11.1321C25.7486 10.6762 26.0007 10.0978 26 9.5001V3.36287H7ZM24 9.50851C24 9.92046 23.65 10.2736 23.17 10.3324L7 12.4678V5.0443H24V9.50851ZM8 19.7568C8 20.4546 7.33 21.0179 6.5 21.0179C5.67 21.0179 5 20.4546 5 19.7568C5 19.0591 5.67 18.4958 6.5 18.4958C7.33 18.4958 8 19.0591 8 19.7568ZM24 19.7568C24 20.4546 23.33 21.0179 22.5 21.0179C21.67 21.0179 21 20.4546 21 19.7568C21 19.0591 21.67 18.4958 22.5 18.4958C23.33 18.4958 24 19.0591 24 19.7568Z" fill="#BCBCBC"/>
</svg>
