<svg width="116" height="22" viewBox="0 0 116 22" fill="none" xmlns="http://www.w3.org/2000/svg">
<path d="M7.59623 6.90492H12.12V10.4574H7.59623V21.5286H2.47267V10.4574H0V6.90492H2.47267V6.25235C2.47267 4.27893 3.11461 2.7536 4.39822 1.67638C5.6821 0.598934 7.43215 0.0608923 9.64756 0.0622585C10.8478 0.0622585 11.8035 0.220278 12.5141 0.53609V4.20903C11.9038 3.94235 11.2232 3.80876 10.5351 3.82058C9.78339 3.80009 9.04637 3.99864 8.44925 4.38185C7.88094 4.76141 7.59651 5.39326 7.59651 6.27763V6.90492H7.59623ZM30.1421 18.0401C29.4357 19.2231 28.3375 20.2104 26.9788 20.8838C25.6023 21.5748 23.9593 21.9209 22.0498 21.9209C20.771 21.9336 19.501 21.7424 18.3074 21.3576C17.215 21.0043 16.2222 20.4646 15.3919 19.7728C14.5642 19.0749 13.9139 18.2436 13.4802 17.3292C13.0099 16.341 12.7737 15.2855 12.7847 14.2217C12.7744 13.1716 13.0107 12.1302 13.4802 11.1567C13.919 10.245 14.5678 9.41467 15.3897 8.71327C16.2048 8.01964 17.1781 7.47062 18.2517 7.09892C19.3885 6.70459 20.6086 6.50649 21.839 6.51648C23.0805 6.50509 24.3125 6.70319 25.4611 7.09915C26.5232 7.46432 27.4811 8.01371 28.2719 8.71122C29.0668 9.42695 29.685 10.2673 30.091 11.184C30.5374 12.1929 30.7589 13.262 30.7446 14.338C30.7446 14.5944 30.7446 14.8121 30.7283 14.9888C30.7204 15.128 30.7026 15.2668 30.6751 15.4043H17.8439C17.8855 15.8196 18.0298 16.2232 18.2677 16.5892C18.5034 16.9464 18.818 17.2628 19.1949 17.5214C19.5851 17.7894 20.027 17.9996 20.5016 18.143C20.9938 18.2937 21.5143 18.3693 22.0381 18.3664C23.0039 18.3664 23.7694 18.2083 24.3347 17.8925C24.9261 17.5528 25.4207 17.1078 25.783 16.5892L30.1421 18.0401ZM25.6903 12.59C25.5933 11.8328 25.1497 11.1366 24.4529 10.6478C23.88 10.2743 23.2028 10.0294 22.4855 9.93627C21.7682 9.84316 21.0344 9.90489 20.3535 10.1156C19.4917 10.4019 18.7655 10.917 18.2862 11.582C18.0655 11.8888 17.9272 12.2321 17.8808 12.5882L25.6903 12.59ZM51.3089 6.90492V21.5343H46.2547V19.5804C45.6497 20.3265 44.8132 20.9201 43.8355 21.2972C42.8233 21.6912 41.7187 21.8904 40.6027 21.8801C39.4746 21.8929 38.3573 21.6937 37.333 21.2972C36.3423 20.9086 35.4536 20.3586 34.7188 19.6795C33.9556 18.9715 33.3616 18.1473 32.9693 17.2516C32.5379 16.2806 32.3219 15.2518 32.3319 14.2157C32.3208 13.1847 32.5368 12.1608 32.9693 11.1956C33.3675 10.3017 33.9608 9.47765 34.7188 8.76564C35.4503 8.08089 36.3395 7.52726 37.333 7.13808C38.3564 6.73833 39.4737 6.53588 40.6027 6.54562C41.7156 6.53834 42.8176 6.72967 43.8355 7.10689C44.8162 7.47009 45.6547 8.05782 46.2547 8.80253V6.90492H51.3089ZM37.4558 14.2196C37.4499 14.7282 37.5706 15.2323 37.8103 15.6996C38.0382 16.1453 38.3617 16.5522 38.7649 16.9C39.1794 17.2544 39.6741 17.536 40.2201 17.7282C40.766 17.9204 41.3522 18.0194 41.9443 18.0194C42.5365 18.0194 43.1227 17.9204 43.6686 17.7282C44.2145 17.536 44.7092 17.2544 45.1237 16.9C45.5263 16.5518 45.8499 16.145 46.0786 15.6996C46.3125 15.2308 46.433 14.7277 46.433 14.2196C46.433 13.7115 46.3125 13.2084 46.0786 12.7396C45.8499 12.2943 45.5263 11.8876 45.1237 11.5394C44.7094 11.1848 44.2148 10.9031 43.6688 10.7108C43.1229 10.5185 42.5366 10.4195 41.9445 10.4196C41.3522 10.4196 40.766 10.5186 40.22 10.7109C39.674 10.9032 39.1794 11.1848 38.7649 11.5394C38.3618 11.8871 38.0382 12.2939 37.8103 12.7396C37.5708 13.2069 37.45 13.711 37.4558 14.2196ZM60.743 2.60879V6.90515H65.16V10.4574H60.743V15.8182C60.743 16.6083 60.9492 17.1714 61.3618 17.5082C61.7742 17.8447 62.4085 18.0125 63.2643 18.0112C63.598 18.0107 63.9303 17.9755 64.2537 17.9064C64.5844 17.8402 64.8984 17.725 65.1809 17.5662V21.2975C64.7046 21.478 64.2076 21.6173 63.6976 21.7132C63.0013 21.8408 62.2898 21.9 61.5773 21.8899C59.7389 21.8899 58.2896 21.4414 57.2298 20.5438C56.1701 19.6467 55.6325 18.3775 55.617 16.737V10.4574H53.1467V6.90515H55.617V2.60856H60.743V2.60879ZM72.158 21.5343H66.9972V0.802265H72.158V8.76564C72.6784 8.07155 73.4019 7.50054 74.2598 7.10689C75.2035 6.69889 76.2552 6.49841 77.3166 6.52422C79.325 6.52422 80.8976 7.05771 82.0345 8.12491C83.1717 9.19166 83.7425 10.653 83.7471 12.5085V21.5402H78.5888V13.4798C78.5888 12.5319 78.3177 11.7963 77.7754 11.2732C77.2329 10.75 76.4676 10.4911 75.4788 10.4963C75.0212 10.4803 74.5653 10.5518 74.1456 10.7056C73.726 10.8594 73.3538 11.0914 73.0572 11.3839C72.4576 11.9757 72.158 12.7751 72.158 13.7827V21.5343ZM102.687 18.0401C101.981 19.2226 100.884 20.2098 99.5261 20.8838C98.1466 21.5748 96.5028 21.9209 94.5949 21.9209C93.3153 21.9337 92.0444 21.7425 90.85 21.3576C89.758 21.0039 88.7654 20.4643 87.9348 19.7728C87.1086 19.0747 86.4597 18.2434 86.0275 17.3292C85.5562 16.3413 85.32 15.2856 85.3323 14.2217C85.3206 13.1716 85.5569 12.1299 86.0275 11.1567C86.4654 10.245 87.1136 9.41474 87.9348 8.71327C88.7502 8.02013 89.7233 7.47125 90.7965 7.09915C93.1114 6.32748 95.6909 6.32748 98.0059 7.09915C99.0645 7.46455 100.019 8.014 100.805 8.71122C101.601 9.42637 102.219 10.2669 102.624 11.184C103.072 12.1928 103.294 13.2619 103.28 14.338C103.28 14.5946 103.28 14.8121 103.262 14.9888C103.255 15.1281 103.237 15.267 103.208 15.4045H90.3912C90.4306 15.8201 90.5751 16.2242 90.8152 16.5892C91.0499 16.947 91.3646 17.2636 91.7421 17.5216C92.1331 17.7889 92.5749 17.999 93.0491 18.1432C93.5411 18.2937 94.0616 18.3696 94.5856 18.3664C95.5525 18.3664 96.3189 18.2086 96.8845 17.8925C97.4758 17.5528 97.9704 17.1078 98.3327 16.5892L102.687 18.0401ZM98.2354 12.59C98.1383 11.8328 97.6947 11.1366 96.998 10.6478C96.425 10.2742 95.7478 10.0293 95.0305 9.9362C94.3131 9.84309 93.5793 9.90485 92.8983 10.1156C92.0398 10.4039 91.3172 10.9196 90.8408 11.584C90.6211 11.8911 90.4827 12.2342 90.4352 12.59H98.2354ZM115.868 11.1095C115.453 10.9707 115.007 10.9097 114.561 10.931C113.124 10.931 112.005 11.3459 111.204 12.176C110.402 13.006 110.001 14.141 110.003 15.5808V21.5338H104.879V6.90447H109.966V9.30323C110.401 8.49109 111.099 7.79785 111.982 7.30271C112.877 6.81282 113.926 6.56033 114.995 6.57818C115.177 6.57796 115.36 6.58775 115.541 6.60733C115.653 6.6153 115.763 6.63488 115.868 6.66562V11.1095Z" fill="black"/>
</svg>
